# xmcd
#
# Track frame offsets:
#	182
#	13682
#	31160
#	44582
#	70170
#
# Disc length: 4440 seconds
#
# Revision: 3
# Processed by: cddbd v1.5.2PL0 Copyright (c) Steve Scherf et al.
# Submitted via: audiograbber 1.83.01
#
DISCID=3a115605
DTITLE=Daniel Küblböck - You Drive Me Crazy
DYEAR=2003
DGENRE=Sound Clip
TTITLE0=Daniel Küblböck - You Drive Me Crazy (Radio Version)
TTITLE1=Daniel Küblböck - You Drive Me Crazy (Extended Version)
TTITLE2=Daniel Küblböck - You Drive Me Crazy (Instrumental Version)
TTITLE3=Daniel Küblböck - Superman (Eggenfelden Mix)
TTITLE4=Daniel Küblböck - data
EXTD=
EXTT0=
EXTT1=
EXTT2=
EXTT3=
EXTT4=
PLAYORDER=
